<svg width="28" height="29" viewBox="0 0 28 29" fill="none" xmlns="http://www.w3.org/2000/svg">
<path fill-rule="evenodd" clip-rule="evenodd" d="M2.61719 13.17C2.61719 7.61744 7.11842 3.11621 12.671 3.11621C18.2235 3.11621 22.7248 7.61744 22.7248 13.17C22.7248 15.8717 21.6591 18.3246 19.9251 20.1311C19.8694 20.1708 19.8162 20.2157 19.7662 20.2657C19.7162 20.3157 19.6714 20.3688 19.6316 20.4245C17.8252 22.1582 15.3725 23.2238 12.671 23.2238C7.11842 23.2238 2.61719 18.7225 2.61719 13.17ZM20.6199 22.8871C18.4552 24.66 15.6873 25.7238 12.671 25.7238C5.73771 25.7238 0.117188 20.1033 0.117188 13.17C0.117188 6.23673 5.73771 0.616211 12.671 0.616211C19.6042 0.616211 25.2248 6.23673 25.2248 13.17C25.2248 16.1866 24.1608 18.9546 22.3877 21.1194L27.5184 26.25C28.0065 26.7382 28.0065 27.5296 27.5184 28.0178C27.0302 28.506 26.2387 28.506 25.7506 28.0178L20.6199 22.8871Z" fill="#131414"/>
</svg>
